<svg viewBox="0 0 1024 1024" xmlns="http://www.w3.org/2000/svg"><path d="M939.408393 441.561741 699.453323 617.322767l97.696066 267.560802c4.069689 12.240789-0.190335 25.708522-10.576893 33.420157-5.304819 3.914146-11.603269 5.90243-17.898649 5.90243-6.03853 0-12.075013-1.813299-17.243733-5.435803L509.473457 746.369865 270.246981 919.942039c-10.488889 7.214309-24.405853 6.984065-34.69008-0.586354-10.254551-7.510044-14.647605-20.684088-10.92891-32.833803l79.256088-268.88189L82.084507 441.47476c-10.694573-7.510044-15.267728-21.064758-11.308557-33.506115 3.955078-12.416797 15.513322-20.86112 28.593222-20.86112l291.582915 0 88.023776-267.25688c3.927449-12.385075 19.041682-21.429055 32.079626-21.48636 0.046049 0 0.088004 0 0.130983 0 12.993942 0 20.905122 8.925277 24.920576 21.25407l90.720188 267.48917 295.41622 0c13.097296 0 24.681122 8.469905 28.623921 20.945031C954.788685 420.525636 950.146968 434.084443 939.408393 441.561741zM631.833249 425.328012c-16.627702 0-34.136471-10.657734-39.272445-26.433022l-84.219123-260.419148-82.977853 260.121366c-5.04183 15.885805-22.644743 26.730805-39.388079 26.730805L121.013121 425.328012l206.597335 164.54252c13.556761 9.534144 12.376888 26.657126 7.54279 42.47437L262.533298 885.519042l225.64004-166.150134c13.193487-9.045003 30.629601-8.936533 43.716664 0.260943l231.676523 167.409824L667.1148 630.809943c-5.343705-16.080234 0.545422-33.725102 14.476713-43.444465l223.99354-162.037467L631.833249 425.328012z" fill="#ffffff"></path></svg>